<svg width="24" height="24" viewBox="0 0 24 24" fill="none" xmlns="http://www.w3.org/2000/svg">
<path fill-rule="evenodd" clip-rule="evenodd" d="M18.735 17.655V12.97C18.735 10.46 17.395 9.292 15.609 9.292C15.1166 9.27221 14.6282 9.38754 14.1967 9.62551C13.7652 9.86348 13.407 10.215 13.161 10.642V9.484H10.445C10.481 10.251 10.445 17.655 10.445 17.655H13.161V13.092C13.1506 12.8677 13.1811 12.6434 13.251 12.43C13.3526 12.1411 13.5409 11.8907 13.7903 11.7129C14.0396 11.5352 14.3378 11.4388 14.644 11.437C15.627 11.437 16.02 12.186 16.02 13.284V17.656H18.736L18.735 17.655ZM7.584 8.369C7.77826 8.3847 7.97366 8.36013 8.15798 8.29683C8.34231 8.23353 8.51158 8.13286 8.6552 8.00113C8.79882 7.86939 8.9137 7.70943 8.99266 7.53125C9.07161 7.35307 9.11293 7.16051 9.11404 6.96563C9.11514 6.77074 9.076 6.57773 8.99907 6.39866C8.92215 6.2196 8.80908 6.05835 8.66696 5.92499C8.52484 5.79164 8.35672 5.68906 8.17313 5.62368C7.98954 5.55829 7.79442 5.53151 7.6 5.545C7.40594 5.52817 7.21049 5.55155 7.02588 5.61369C6.84127 5.67583 6.67146 5.77539 6.52708 5.90615C6.3827 6.03691 6.26685 6.19605 6.18678 6.37362C6.1067 6.5512 6.06413 6.74338 6.06171 6.93816C6.0593 7.13293 6.0971 7.32611 6.17274 7.50561C6.24839 7.68512 6.36026 7.84708 6.50136 7.98138C6.64245 8.11567 6.80974 8.21941 6.99276 8.28611C7.17577 8.35281 7.37058 8.38103 7.565 8.369H7.584ZM12 24C9.62663 24 7.30655 23.2962 5.33316 21.9776C3.35977 20.6591 1.8217 18.7849 0.913451 16.5922C0.00519943 14.3995 -0.232441 11.9867 0.230582 9.65892C0.693605 7.33115 1.83649 5.19295 3.51472 3.51472C5.19295 1.83649 7.33115 0.693605 9.65892 0.230582C11.9867 -0.232441 14.3995 0.00519943 16.5922 0.913451C18.7849 1.8217 20.6591 3.35977 21.9776 5.33316C23.2962 7.30655 24 9.62663 24 12C24 15.1826 22.7357 18.2348 20.4853 20.4853C18.2348 22.7357 15.1826 24 12 24ZM8.942 17.655V9.484H6.226V17.655H8.942Z" fill="white"/>
</svg>
