<svg width="24" height="24" viewBox="0 0 24 24" fill="none" xmlns="http://www.w3.org/2000/svg">
<path fill-rule="evenodd" clip-rule="evenodd" d="M13.667 7.313C13.1654 7.48519 12.734 7.81702 12.4389 8.25769C12.1438 8.69836 12.0012 9.2236 12.033 9.753L12.058 10.168L11.639 10.117C10.1265 9.92667 8.7215 9.2344 7.649 8.151L7.1 7.6L6.958 8.007C6.80475 8.43231 6.77221 8.89174 6.86399 9.3344C6.95577 9.77706 7.16829 10.1857 7.478 10.515C7.813 10.871 7.738 10.922 7.16 10.71C7.03638 10.6525 6.9023 10.6208 6.766 10.617C6.79131 11.0116 6.8932 11.3974 7.066 11.753C7.33234 12.2207 7.73201 12.5985 8.214 12.838L8.625 13.033L8.139 13.041C7.67 13.041 7.653 13.049 7.703 13.228C7.85007 13.558 8.06597 13.8527 8.33622 14.0924C8.60648 14.3321 8.92485 14.5113 9.27 14.618L9.79 14.796L9.338 15.067C8.65381 15.4612 7.88142 15.6768 7.092 15.694C6.86061 15.6841 6.62898 15.707 6.404 15.762C6.90592 16.0849 7.45053 16.336 8.022 16.508C8.93382 16.7787 9.89087 16.8627 10.8359 16.755C11.7809 16.6473 12.6945 16.35 13.522 15.881C14.7595 15.088 15.7315 13.9429 16.313 12.593C16.6289 11.7789 16.821 10.922 16.883 10.051C16.883 9.661 16.908 9.61 17.377 9.144C17.5896 8.94258 17.7859 8.72455 17.964 8.492C18.048 8.331 18.039 8.331 17.612 8.475C16.9 8.729 16.799 8.695 17.151 8.314C17.4051 8.05701 17.5996 7.74739 17.721 7.407C17.721 7.382 17.595 7.424 17.453 7.5C17.2157 7.6169 16.9688 7.71325 16.715 7.788L16.263 7.932L15.852 7.652C15.6302 7.50001 15.3912 7.37481 15.14 7.279C14.6544 7.16164 14.1466 7.17336 13.667 7.313ZM12 24C9.62663 24 7.30655 23.2962 5.33316 21.9776C3.35977 20.6591 1.8217 18.7849 0.913451 16.5922C0.00519943 14.3995 -0.232441 11.9867 0.230582 9.65892C0.693605 7.33115 1.83649 5.19295 3.51472 3.51472C5.19295 1.83649 7.33115 0.693605 9.65892 0.230582C11.9867 -0.232441 14.3995 0.00519943 16.5922 0.913451C18.7849 1.8217 20.6591 3.35977 21.9776 5.33316C23.2962 7.30655 24 9.62663 24 12C24 15.1826 22.7357 18.2348 20.4853 20.4853C18.2348 22.7357 15.1826 24 12 24Z" fill="white"/>
</svg>
